<?xml version="1.0" encoding="UTF-8"?>
<svg version="1.1" xmlns="http://www.w3.org/2000/svg" width="1470" height="980">
<path d="M0 0 C1.25732563 0.00460896 2.51465126 0.00921793 3.81007767 0.01396656 C4.51178282 0.00969444 5.21348797 0.00542231 5.93645692 0.00102073 C8.28782252 -0.00721554 10.6374043 0.02028286 12.9886055 0.04761219 C14.67390272 0.04902254 16.35920301 0.04823094 18.04449844 0.04539967 C22.62083051 0.04396358 27.19650888 0.07338431 31.77268887 0.10826945 C36.55460875 0.13950097 41.33654321 0.14246116 46.11854935 0.14839649 C55.1744237 0.16394437 64.22999666 0.20498561 73.28573823 0.25514394 C83.59514485 0.31100803 93.90456578 0.33851652 104.21408606 0.36362112 C125.42197176 0.41590063 146.62958606 0.50386129 167.83723831 0.61523914 C167.14433207 3.66698508 166.42461413 5.44811723 164.36067581 7.82227039 C163.85834427 8.40516834 163.35601273 8.98806629 162.83845901 9.58862782 C162.03347977 10.49898792 162.03347977 10.49898792 161.21223831 11.42773914 C160.39082352 12.37193714 160.39082352 12.37193714 159.55281448 13.33520985 C156.34275145 16.99767554 153.03132756 20.48899566 149.52473831 23.86914539 C146.57841329 26.91777337 144.01397234 30.28572488 141.36458206 33.59180164 C139.08615955 36.31745701 136.7282902 38.89389602 134.28157425 41.46509266 C128.6100809 47.42863086 123.88577611 53.39970001 119.83723831 60.61523914 C119.37833206 61.37707508 118.91942581 62.13891102 118.44661331 62.92383289 C111.48033669 75.36661011 110.23657632 89.69971409 110.31825638 103.66823292 C110.31236188 105.20496357 110.30472493 106.74168833 110.29552531 108.27840275 C110.27549083 112.44728082 110.27975894 116.61581424 110.28843284 120.78471792 C110.29341769 125.30051823 110.27524354 129.81623632 110.26001358 134.3320055 C110.23679513 142.13800543 110.22794887 149.9439127 110.22912216 157.74994564 C110.23079733 169.03585976 110.21039653 180.32165102 110.18476686 191.60753226 C110.14376755 209.92218833 110.12039375 228.23682217 110.10823441 246.55151844 C110.09639117 264.3327902 110.07612065 282.11401996 110.04475784 299.89526844 C110.04281233 301.0041711 110.04086682 302.11307376 110.03886235 303.25557953 C110.02357968 311.92911677 110.00781136 320.60265312 109.99188972 329.27618921 C109.91409685 371.72253233 109.87862725 414.16881475 109.83723831 456.61523914 C52.41723831 456.61523914 -5.00276169 456.61523914 -64.16276169 456.61523914 C-64.89762436 452.20606313 -65.28637288 448.62548622 -65.28136539 444.23692226 C-65.28233984 442.96688717 -65.28331429 441.69685207 -65.28431827 440.38833106 C-65.28030013 438.98639722 -65.27618 437.58446367 -65.27196884 436.1825304 C-65.27113828 434.687328 -65.27073985 433.1921253 -65.27073592 431.69692266 C-65.26940456 427.59118141 -65.26171065 423.48547307 -65.25292051 419.37974191 C-65.24449951 414.95005554 -65.24184284 410.52036495 -65.23832321 406.09067249 C-65.22848462 395.39368981 -65.20884492 384.6967335 -65.18806246 373.99976736 C-65.17847183 368.95809321 -65.16990229 363.91641732 -65.16121101 358.87474155 C-65.13190862 342.10726047 -65.10011489 325.33978699 -65.06099033 308.57232571 C-65.05087046 304.22286069 -65.04075895 299.87339566 -65.03068161 295.52393055 C-65.02817474 294.44293675 -65.02566786 293.36194295 -65.02308502 292.24819176 C-64.98296152 274.74803396 -64.95976405 257.24789708 -64.94370297 239.74770232 C-64.92693161 221.7666355 -64.89519568 203.78564399 -64.84881896 185.80462873 C-64.82315951 175.71468565 -64.80395131 165.62482221 -64.8014431 155.5348444 C-64.79925509 146.93928193 -64.78342107 138.34387849 -64.7501106 129.74837799 C-64.73354204 125.36766043 -64.72322168 120.98717567 -64.73041725 116.60642719 C-64.73686788 112.58528799 -64.72458183 108.56463091 -64.69821235 104.543577 C-64.69189271 103.0993496 -64.69207587 101.65507354 -64.69992802 100.21085365 C-64.77201824 85.55873939 -62.23107428 72.07057749 -54.16276169 59.61523914 C-53.54530075 58.66004383 -52.92783981 57.70484852 -52.29166794 56.72070789 C-48.90097089 51.68048255 -48.90097089 51.68048255 -47.16276169 49.61523914 C-46.50276169 49.61523914 -45.84276169 49.61523914 -45.16276169 49.61523914 C-44.93846481 49.07125477 -44.71416794 48.52727039 -44.48307419 47.96680164 C-42.75897522 44.89606915 -40.45087213 42.52045521 -38.03776169 39.99023914 C-33.78553315 35.45383047 -29.80551822 30.80437815 -26.01432419 25.86914539 C-23.88194817 23.27340497 -21.55213584 20.97646161 -19.16276169 18.61523914 C-17.11990576 16.46880467 -15.1091553 14.29343573 -13.10026169 12.11523914 C-12.58399216 11.55965321 -12.06772263 11.00406727 -11.53580856 10.43164539 C-11.02985153 9.88379383 -10.5238945 9.33594227 -10.00260544 8.77148914 C-9.55264206 8.28486805 -9.10267868 7.79824696 -8.63908005 7.29687977 C-7.02897862 5.54593375 -7.02897862 5.54593375 -5.50629425 3.04771614 C-3.16276169 0.61523914 -3.16276169 0.61523914 0 0 Z M19.21223831 153.67773914 C17.73206358 156.31175661 16.28270806 158.96204517 14.83723831 161.61523914 C14.36946976 162.47262684 13.9017012 163.33001453 13.41975784 164.21338367 C11.34494365 168.01888023 9.27157748 171.82514724 7.20344925 175.63428211 C4.01845763 181.49032814 0.75363503 187.27785028 -2.64323044 193.01367664 C-4.7842662 196.67930599 -6.80471382 200.40557015 -8.80338669 204.15039539 C-9.98620096 206.29509597 -11.26633764 208.3141025 -12.60026169 210.36523914 C-14.52814935 214.37524549 -14.46267783 216.3905117 -13.16276169 220.61523914 C-10.30040984 223.33424567 -8.29796942 223.99514227 -4.394207 224.04761219 C-3.45353378 224.06740635 -2.51286057 224.08720051 -1.5436821 224.10759449 C-0.53625961 224.11398441 0.47116287 224.12037434 1.50911331 224.12695789 C3.06544479 224.1538847 3.06544479 224.1538847 4.65321732 224.18135548 C7.96451641 224.23550292 11.27567098 224.26936899 14.58723831 224.30273914 C16.83335219 224.33590824 19.07944699 224.37039751 21.32551956 224.40625477 C26.82929622 224.49123185 32.33309148 224.55956301 37.83723831 224.61523914 C38.83723831 227.61523914 38.83723831 227.61523914 37.62483597 230.36401844 C37.00656937 231.46141346 36.38830276 232.55880848 35.75130081 233.68945789 C35.41885864 234.28605717 35.08641647 234.88265644 34.7439003 235.49733448 C33.65951651 237.43797549 32.56108055 239.37025445 31.46223831 241.30273914 C30.71743384 242.62937822 29.97353798 243.95652783 29.23054886 245.28418446 C27.42680832 248.50247054 25.61235603 251.71454797 23.79384232 254.92450428 C22.50378854 257.20458976 21.22261853 259.48960419 19.94270706 261.77539539 C19.17840946 263.13869083 18.41408902 264.50197347 17.64973831 265.86523914 C17.12899734 266.79445179 17.12899734 266.79445179 16.59773636 267.74243641 C15.15922472 270.30101598 13.7011489 272.84162485 12.18880081 275.35742664 C8.72105808 281.08024799 8.72105808 281.08024799 8.83723831 287.61523914 C10.81690094 290.67831545 10.81690094 290.67831545 13.83723831 292.61523914 C17.58596076 292.77143591 19.27890056 292.03041337 22.27473831 289.80273914 C27.69386738 283.75832595 31.24374788 275.91243149 34.77473831 268.67773914 C37.47443217 263.1559653 40.63630252 258.02674753 43.90364456 252.82617664 C46.25351852 248.92396171 48.21620069 244.8988585 50.19270706 240.79883289 C52.47990553 236.3711209 55.08740307 232.15416785 57.76668167 227.95361805 C60.27947074 223.91624623 61.88512864 220.29644505 62.83723831 215.61523914 C61.51489074 212.63995711 60.12811682 210.90611765 57.83723831 208.61523914 C55.69671329 208.28489086 55.69671329 208.28489086 53.20393753 208.29639149 C52.2430925 208.2765218 51.28224747 208.25665211 50.29228592 208.23618031 C49.25266708 208.2246291 48.21304825 208.21307789 47.14192581 208.20117664 C46.07934555 208.18181049 45.01676529 208.16244434 43.92198563 208.14249134 C40.51881888 208.0825783 37.11561853 208.03626316 33.71223831 207.99023914 C31.40883792 207.95207017 29.10545195 207.91301909 26.80208206 207.87305164 C21.14726203 207.77686727 15.49235548 207.69185434 9.83723831 207.61523914 C10.57323337 203.44736686 11.80953581 200.61867238 14.02473831 196.99023914 C16.30340587 193.18938476 18.54364766 189.38951554 20.64973831 185.49023914 C22.91149693 181.30628888 25.20472299 177.141366 27.51814651 172.98584461 C28.39480449 171.41035896 29.26965431 169.83386578 30.14265823 168.25635242 C32.00420891 164.89384889 33.87803916 161.54524876 35.81380081 158.22461414 C36.35778519 157.28102039 36.90176956 156.33742664 37.46223831 155.36523914 C37.92887894 154.57633289 38.39551956 153.78742664 38.87630081 152.97461414 C40.39795949 149.23850909 40.39877193 145.94888149 38.83723831 142.24023914 C36.28543189 140.16689643 34.13746135 139.85680052 30.88020706 140.06445789 C24.99851285 141.65015366 22.05107053 148.81200408 19.21223831 153.67773914 Z " fill="#000000" transform="translate(981.1627616882324,261.3847608566284)"/>
<path d="M0 0 C0.87783142 -0.00761353 1.75566284 -0.01522705 2.66009521 -0.02307129 C4.51246306 -0.03384254 6.36489149 -0.03673752 8.21728516 -0.03222656 C11.02481738 -0.03125761 13.82958286 -0.07284096 16.63671875 -0.1171875 C34.75255103 -0.24804606 34.75255103 -0.24804606 41.796875 5.46875 C42.49369385 6.03086182 43.1905127 6.59297363 43.90844727 7.17211914 C51.01709553 14.01844946 53.71042095 23.35295491 56.984375 32.40625 C57.63246142 34.15050639 58.28264186 35.89398604 58.93481445 37.63671875 C60.26274025 41.19177928 61.58072411 44.75027157 62.890625 48.31201172 C65.42629163 55.19300246 68.05276603 62.03858048 70.68377686 68.88354492 C71.48246851 70.96378443 72.27814939 73.04514929 73.07275391 75.12695312 C75.74262676 82.12113855 78.42669876 89.10959422 81.1328125 96.08984375 C81.40553482 96.79335968 81.67825714 97.49687561 81.95924377 98.22171021 C83.25093204 101.5522689 84.54445513 104.88210144 85.84057617 108.2109375 C93.796875 128.69024222 93.796875 128.69024222 93.796875 131.46875 C94.40869629 131.34757813 95.02051758 131.22640625 95.65087891 131.1015625 C123.1022886 125.78607822 151.36598566 125.09160636 177.48974609 136.66137695 C179.796875 138.46875 179.796875 138.46875 180.36450195 141.2878418 C180.33831787 142.40328369 180.31213379 143.51872559 180.28515625 144.66796875 C180.26904297 145.87646484 180.25292969 147.08496094 180.23632812 148.33007812 C180.17348633 150.2240332 180.17348633 150.2240332 180.109375 152.15625 C180.08681641 153.43048828 180.06425781 154.70472656 180.04101562 156.01757812 C179.98199762 159.1691396 179.89970475 162.31836279 179.796875 165.46875 C175.95134557 166.61552917 174.51030433 166.14090715 170.921875 164.28125 C150.46895076 154.50295953 127.78125085 153.56661039 105.796875 157.46875 C106.77334179 164.77541532 109.16905643 170.94613451 112.1640625 177.65234375 C113.87935815 181.56390639 115.29002311 185.55445445 116.671875 189.59375 C118.87466524 196.0123645 121.2993389 202.30931863 123.859375 208.59375 C126.26239302 214.49888889 128.53032274 220.39948897 130.484375 226.46875 C132.26451065 231.98836525 134.33020165 237.29237611 136.59375 242.62890625 C143.43511137 258.77718454 143.43511137 258.77718454 141.796875 265.46875 C139.88748368 269.1133181 137.55560618 271.62427987 133.828125 273.4140625 C129.32691289 274.78173849 126.06924621 274.6524064 121.796875 272.46875 C116.62529085 268.26578503 114.72763987 263.34384406 112.359375 257.21875 C111.96959473 256.23801514 111.57981445 255.25728027 111.17822266 254.24682617 C108.09257335 246.41417116 105.26144796 238.50431303 102.51953125 230.54638672 C98.1761918 218.05928579 93.38229204 205.73365402 88.609375 193.40625 C88.35130066 192.73962341 88.09322632 192.07299683 87.82733154 191.38616943 C84.8608743 183.72944855 81.86905498 176.08377493 78.796875 168.46875 C55.9950959 178.60786438 38.92937457 200.15296211 29.76953125 223.03515625 C19.38085361 251.84903575 22.5042174 281.78965937 35.08203125 309.27734375 C36.21726372 311.43620956 37.4377959 313.44383965 38.796875 315.46875 C39.35761719 316.31050781 39.91835938 317.15226562 40.49609375 318.01953125 C58.28529728 343.53062029 83.21623504 358.92851487 113.796875 364.46875 C116.80235258 364.97046696 119.75480858 365.29888842 122.796875 365.46875 C123.73402344 365.52160156 124.67117188 365.57445312 125.63671875 365.62890625 C141.88500037 366.09084751 156.4538545 361.6314178 171.57128906 356.17724609 C173.95939416 355.41701343 176.33299546 354.91805843 178.796875 354.46875 C181.83149507 359.5364234 180.95249382 364.81653684 180.734375 370.53125 C180.71955078 371.63275391 180.70472656 372.73425781 180.68945312 373.86914062 C180.65142578 374.92423828 180.61339844 375.97933594 180.57421875 377.06640625 C180.54577881 378.03070557 180.51733887 378.99500488 180.48803711 379.98852539 C179.796875 382.46875 179.796875 382.46875 177.45043945 384.23779297 C174.36353477 385.66977139 171.32887458 386.63052345 168.046875 387.53125 C166.89703125 387.85222656 165.7471875 388.17320312 164.5625 388.50390625 C163.31984375 388.82230469 162.0771875 389.14070313 160.796875 389.46875 C160.14878372 389.6403212 159.50069244 389.8118924 158.83296204 389.98866272 C152.90886721 391.44756016 147.28522559 391.79014491 141.19921875 391.8046875 C140.20668594 391.8113443 139.21415314 391.8180011 138.19154358 391.82485962 C136.09980098 391.83493299 134.00802659 391.8396783 131.91625977 391.83935547 C128.76718068 391.84370469 125.61953283 391.8800162 122.47070312 391.91796875 C110.59470643 391.98498031 100.12548821 391.17504029 88.796875 387.46875 C87.92023193 387.19160156 87.04358887 386.91445313 86.14038086 386.62890625 C83.99426994 385.90855905 81.89737228 385.12451533 79.796875 384.28125 C79.05469727 383.98573242 78.31251953 383.69021484 77.54785156 383.38574219 C52.52918072 373.10395098 31.32787834 355.2710498 16.796875 332.46875 C15.73533203 330.80585937 15.73533203 330.80585937 14.65234375 329.109375 C-4.47466565 297.3651223 -8.2537464 259.18894014 0.546875 223.53125 C5.93006907 205.13867027 15.31364638 188.66717794 27.52880859 173.99511719 C28.63054414 172.66896189 29.70992591 171.32429719 30.78515625 169.9765625 C40.49318766 158.29366389 54.54121928 148.67291072 67.796875 141.46875 C67.1958308 138.12670843 66.37478027 135.06667331 65.16796875 131.89453125 C64.85537109 131.06244141 64.54277344 130.23035156 64.22070312 129.37304688 C63.89521484 128.51775391 63.56972656 127.66246094 63.234375 126.78125 C62.58427768 125.07013279 61.93699773 123.35794168 61.29296875 121.64453125 C61.00607178 120.89083252 60.7191748 120.13713379 60.42358398 119.3605957 C59.796875 117.46875 59.796875 117.46875 59.796875 115.46875 C58.48099559 116.58979533 57.16927147 117.71571965 55.859375 118.84375 C55.12847656 119.47023438 54.39757812 120.09671875 53.64453125 120.7421875 C51.71306594 122.34622714 51.71306594 122.34622714 50.796875 124.46875 C50.136875 124.46875 49.476875 124.46875 48.796875 124.46875 C48.56355469 125.03078125 48.33023437 125.5928125 48.08984375 126.171875 C46.47750424 129.03609142 44.4775188 130.94127021 42.109375 133.21875 C37.77156996 137.46955035 33.7488842 141.86380015 29.796875 146.46875 C28.20020769 148.30861829 26.59579549 150.14178919 24.984375 151.96875 C24.23542969 152.8246875 23.48648437 153.680625 22.71484375 154.5625 C20.796875 156.46875 20.796875 156.46875 18.796875 156.46875 C18.5297168 157.05809326 18.26255859 157.64743652 17.98730469 158.25463867 C16.77860391 160.50273288 15.50796917 162.05466747 13.75 163.89453125 C13.151875 164.52681641 12.55375 165.15910156 11.9375 165.81054688 C11.00164062 166.78604492 11.00164062 166.78604492 10.046875 167.78125 C8.82148586 169.06764898 7.59751715 170.35540259 6.375 171.64453125 C5.77751953 172.27311035 5.18003906 172.90168945 4.56445312 173.54931641 C2.28975439 176.01943815 0.15807918 178.59491076 -1.95019531 181.20776367 C-2.36366211 181.62388916 -2.77712891 182.04001465 -3.203125 182.46875 C-3.863125 182.46875 -4.523125 182.46875 -5.203125 182.46875 C-5.44675781 183.04109375 -5.69039062 183.6134375 -5.94140625 184.203125 C-7.42829798 186.87308538 -9.18396408 188.60704007 -11.390625 190.71875 C-14.90462401 194.09120439 -18.11085148 197.62870683 -21.29614258 201.30566406 C-25.26704339 205.80984806 -29.45169067 210.11870486 -33.59375 214.46484375 C-34.274375 215.18285156 -34.955 215.90085937 -35.65625 216.640625 C-36.26629883 217.2809668 -36.87634766 217.92130859 -37.50488281 218.58105469 C-39.2639958 220.46494215 -39.2639958 220.46494215 -40.79980469 222.70800781 C-41.26290039 223.28905273 -41.72599609 223.87009766 -42.203125 224.46875 C-42.863125 224.46875 -43.523125 224.46875 -44.203125 224.46875 C-44.863125 225.78875 -45.523125 227.10875 -46.203125 228.46875 C-46.863125 228.46875 -47.523125 228.46875 -48.203125 228.46875 C-48.450625 229.03078125 -48.698125 229.5928125 -48.953125 230.171875 C-50.41587367 232.85967569 -52.17117373 234.93280482 -54.203125 237.21875 C-54.904375 238.01796875 -55.605625 238.8171875 -56.328125 239.640625 C-58.203125 241.46875 -58.203125 241.46875 -60.203125 241.46875 C-60.44675781 242.04109375 -60.69039062 242.6134375 -60.94140625 243.203125 C-62.42829798 245.87308538 -64.18396408 247.60704007 -66.390625 249.71875 C-71.2095417 254.42972296 -75.70287706 259.33914903 -79.91015625 264.60546875 C-80.76673828 265.65154297 -80.76673828 265.65154297 -81.640625 266.71875 C-82.13433594 267.34265625 -82.62804687 267.9665625 -83.13671875 268.609375 C-90.03535129 274.81684019 -96.92327399 275.06856056 -105.796875 275.078125 C-106.98414185 275.09466125 -108.17140869 275.11119751 -109.39465332 275.12823486 C-113.1641972 275.17658463 -116.93333798 275.19805804 -120.703125 275.21875 C-123.2682493 275.24692039 -125.83335494 275.2768493 -128.3984375 275.30859375 C-134.66659381 275.38234042 -140.93463736 275.43405923 -147.203125 275.46875 C-147.44486954 276.67868874 -147.44486954 276.67868874 -147.6914978 277.91307068 C-150.70579508 292.92965374 -154.01001294 306.85125542 -161.203125 320.46875 C-161.52539062 321.09523438 -161.84765625 321.72171875 -162.1796875 322.3671875 C-166.91194008 331.48543027 -172.71726658 339.54513972 -179.203125 347.46875 C-179.83347656 348.2421875 -180.46382812 349.015625 -181.11328125 349.8125 C-185.03266759 354.4550533 -189.29619428 358.85905384 -194.203125 362.46875 C-194.863125 362.46875 -195.523125 362.46875 -196.203125 362.46875 C-196.203125 363.12875 -196.203125 363.78875 -196.203125 364.46875 C-198.17575592 365.88600945 -200.14666352 367.18388183 -202.203125 368.46875 C-203.37850147 369.24473632 -204.55295629 370.02212016 -205.7265625 370.80078125 C-227.77713838 385.12462433 -250.46376236 392.56129407 -276.8984375 392.14111328 C-280.09736678 392.09346338 -283.2929868 392.10010979 -286.4921875 392.11328125 C-298.05049899 392.08102228 -308.23800481 391.22940704 -319.203125 387.46875 C-320.96571655 386.91731323 -320.96571655 386.91731323 -322.76391602 386.35473633 C-336.80267619 381.90441819 -352.27092941 374.49197652 -363.203125 364.46875 C-363.203125 363.80875 -363.203125 363.14875 -363.203125 362.46875 C-363.78707031 362.200625 -364.37101562 361.9325 -364.97265625 361.65625 C-386.69199392 350.09288984 -399.94507895 320.69299953 -407.203125 298.46875 C-407.53570312 297.59476563 -407.86828125 296.72078125 -408.2109375 295.8203125 C-411.3662461 285.16182912 -411.57579132 274.48587044 -411.57373047 263.46240234 C-411.57808298 260.86878701 -411.61446001 258.27690761 -411.65234375 255.68359375 C-411.88862879 220.65662458 -396.67470397 189.91573548 -372.72949219 164.93115234 C-365.06480513 157.21190311 -356.47302016 151.11295861 -347.203125 145.46875 C-346.61724609 145.10652344 -346.03136719 144.74429688 -345.42773438 144.37109375 C-315.8191819 126.36005509 -279.38077218 123.41592301 -246.203125 131.46875 C-236.85976348 134.02011245 -228.00627332 137.45327884 -219.203125 141.46875 C-218.213125 141.46875 -217.223125 141.46875 -216.203125 141.46875 C-214.31741703 139.19386328 -214.31741703 139.19386328 -212.515625 136.21875 C-211.80792969 135.11660156 -211.10023438 134.01445312 -210.37109375 132.87890625 C-210.00935059 132.3080127 -209.64760742 131.73711914 -209.27490234 131.14892578 C-207.66499481 128.62514819 -205.99560524 126.14224995 -204.328125 123.65625 C-202.14603704 120.38525318 -199.96629909 117.11275712 -197.79296875 113.8359375 C-197.37813232 113.21178955 -196.9632959 112.5876416 -196.53588867 111.94458008 C-195.69133907 110.67248029 -194.84903891 109.39888413 -194.0090332 108.1237793 C-191.9250484 104.97699054 -189.79756097 101.88980006 -187.53125 98.87109375 C-187.10835693 98.29738037 -186.68546387 97.72366699 -186.24975586 97.13256836 C-185.08856964 95.56709178 -183.9062754 94.01733519 -182.72265625 92.46875 C-180.68641807 88.4486191 -181.03615979 86.82276792 -182.203125 82.46875 C-183.62799417 78.55267709 -185.23954573 74.73165893 -186.890625 70.90625 C-187.34324707 69.83938965 -187.79586914 68.7725293 -188.26220703 67.67333984 C-189.56751823 64.60149816 -190.88343143 61.53443531 -192.203125 58.46875 C-192.8218555 57.0248428 -193.44038173 55.58084802 -194.05859375 54.13671875 C-195.02188117 51.89069899 -195.98771761 49.64576936 -196.95703125 47.40234375 C-198.52290799 43.71590665 -199.99714855 39.99728824 -201.44140625 36.26171875 C-202.06570619 34.48139468 -202.06570619 34.48139468 -203.203125 33.46875 C-204.61392931 33.36731562 -206.02965919 33.33308031 -207.4440918 33.3269043 C-208.34560471 33.31986984 -209.24711761 33.31283539 -210.1759491 33.30558777 C-211.64926445 33.29934135 -211.64926445 33.29934135 -213.15234375 33.29296875 C-215.21810905 33.26976186 -217.28386428 33.24564417 -219.34960938 33.22070312 C-222.61717367 33.18563132 -225.88437031 33.15627575 -229.15209961 33.14282227 C-232.2984725 33.12732054 -235.44375876 33.08708366 -238.58984375 33.04296875 C-239.56193283 33.04487717 -240.53402191 33.04678558 -241.53556824 33.04875183 C-247.40828565 32.9431709 -250.6909546 32.30661059 -255.203125 28.46875 C-257.96367804 25.56229036 -258.63441199 23.58250382 -258.640625 19.59375 C-258.46418774 14.80171403 -257.64419343 11.99584514 -254.203125 8.46875 C-247.91253193 5.53107203 -242.63319442 5.03627974 -235.75146484 5.08056641 C-234.73580948 5.07530945 -233.72015411 5.07005249 -232.67372131 5.06463623 C-229.33700914 5.05149802 -226.00077901 5.06015129 -222.6640625 5.0703125 C-220.3357433 5.06829031 -218.00742471 5.06537766 -215.67910767 5.06161499 C-210.80879665 5.05720027 -205.93865111 5.06359659 -201.06835938 5.07763672 C-194.82954462 5.09474694 -188.59111655 5.08487011 -182.3523159 5.06691933 C-177.548178 5.05607484 -172.74413167 5.05953061 -167.939991 5.0673027 C-165.63951191 5.06930187 -163.33902448 5.06685541 -161.03855515 5.05986404 C-157.82414481 5.05223674 -154.6103599 5.06387149 -151.39599609 5.08056641 C-150.44830856 5.07449371 -149.50062103 5.06842102 -148.5242157 5.06216431 C-143.32938705 5.11209258 -139.69681964 5.5638343 -135.203125 8.46875 C-131.58954543 12.45614815 -130.89999069 16.12026824 -130.98828125 21.4765625 C-131.4268458 25.54325196 -133.52473968 27.79525968 -136.3347168 30.58496094 C-139.92253169 32.94121081 -142.76680226 32.98227249 -146.91015625 32.859375 C-147.63555099 32.85371521 -148.36094574 32.84805542 -149.10832214 32.84222412 C-151.41144508 32.81994099 -153.71297724 32.76976487 -156.015625 32.71875 C-157.58265972 32.69867434 -159.14971899 32.68042543 -160.71679688 32.6640625 C-164.54618019 32.62010337 -168.37438346 32.55113623 -172.203125 32.46875 C-170.66324125 36.49026837 -169.12114856 40.51093533 -167.578125 44.53125 C-167.1238916 45.71525391 -166.6696582 46.89925781 -166.20166016 48.11914062 C-163.26815518 55.7485478 -160.27365534 63.34701878 -157.1640625 70.90625 C-156.203125 73.46875 -156.203125 73.46875 -156.203125 75.46875 C-90.203125 75.46875 -24.203125 75.46875 43.796875 75.46875 C40.496875 66.88875 37.196875 58.30875 33.796875 49.46875 C30.296875 40.15625 30.296875 40.15625 28.953125 36.54296875 C27.93511206 33.83629244 26.87538604 31.15168812 25.796875 28.46875 C24.83386475 28.45416748 23.87085449 28.43958496 22.87866211 28.42456055 C19.27950332 28.36625077 15.68094895 28.28902261 12.08227539 28.20629883 C10.52964138 28.17320223 8.97689147 28.14512349 7.42407227 28.12231445 C5.1819556 28.08848476 2.94088653 28.03616013 0.69921875 27.98046875 C0.01351303 27.97407883 -0.67219269 27.9676889 -1.37867737 27.96110535 C-7.38476193 27.78101856 -12.10089337 26.40501597 -16.578125 22.28125 C-18.64583851 18.70251507 -19.51168682 15.56283854 -19.203125 11.46875 C-17.95905194 7.14153934 -16.55503382 4.31737914 -12.68481445 1.88793945 C-8.31007783 0.10473042 -4.67621953 0.00112868 0 0 Z M-144.203125 103.46875 C-139.7195801 116.3815529 -139.7195801 116.3815529 -134.45703125 128.66796875 C-133.03336862 131.84792546 -131.83610408 135.07099531 -130.640625 138.34375 C-127.71989018 146.33187992 -124.47061533 154.18033648 -121.203125 162.03125 C-120.93728607 162.67002075 -120.67144714 163.3087915 -120.39755249 163.96691895 C-120.1331839 164.60206421 -119.86881531 165.23720947 -119.59643555 165.89160156 C-116.54709768 173.21795806 -113.55084126 180.55939861 -110.62890625 187.9375 C-108.84952234 192.34452207 -106.99611726 196.71834781 -105.140625 201.09375 C-102.42411381 207.50064006 -99.82748867 213.93471961 -97.3671875 220.4453125 C-95.42173943 225.49825481 -93.31414139 230.4831581 -91.203125 235.46875 C-86.26965578 231.41808277 -81.81824542 227.11718552 -77.515625 222.40625 C-76.96068359 221.80748047 -76.40574219 221.20871094 -75.83398438 220.59179688 C-72.81589068 217.31531704 -69.9685023 213.96379448 -67.203125 210.46875 C-64.81234457 208.01820006 -62.37762343 205.63381608 -59.890625 203.28125 C-57.97598549 201.63752727 -57.97598549 201.63752727 -58.203125 199.46875 C-57.63851562 199.23929688 -57.07390625 199.00984375 -56.4921875 198.7734375 C-53.59467863 197.12195633 -51.78890967 195.08550396 -49.578125 192.59375 C-48.80210937 191.73007812 -48.02609375 190.86640625 -47.2265625 189.9765625 C-45.17369999 187.62776051 -45.17369999 187.62776051 -44.1171875 185.2109375 C-43.203125 183.46875 -43.203125 183.46875 -40.203125 182.46875 C-40.203125 181.80875 -40.203125 181.14875 -40.203125 180.46875 C-39.543125 180.46875 -38.883125 180.46875 -38.203125 180.46875 C-36.49828034 178.78352271 -36.49828034 178.78352271 -34.765625 176.65625 C-31.35894891 172.61680038 -31.35894891 172.61680038 -29.48046875 170.83203125 C-27.97521419 169.53687114 -27.97521419 169.53687114 -28.203125 167.46875 C-27.543125 167.46875 -26.883125 167.46875 -26.203125 167.46875 C-24.53232219 165.81714219 -24.53232219 165.81714219 -22.828125 163.71875 C-20.86554773 161.39971298 -18.9442955 159.21655716 -16.765625 157.09375 C-14.97208876 155.60419499 -14.97208876 155.60419499 -15.203125 153.46875 C-14.213125 153.13875 -13.223125 152.80875 -12.203125 152.46875 C-10.79304164 151.11623326 -10.79304164 151.11623326 -9.390625 149.34375 C-5.9378352 145.27568319 -2.35091244 141.36093265 1.296875 137.46875 C1.89363037 136.83098633 2.49038574 136.19322266 3.10522461 135.53613281 C6.3180633 132.10561067 9.53728136 128.68111195 12.7578125 125.2578125 C24.20914074 115.12913677 24.20914074 115.12913677 31.796875 103.46875 C-26.283125 103.46875 -84.363125 103.46875 -144.203125 103.46875 Z M-168.203125 118.46875 C-168.66968506 119.17185303 -169.13624512 119.87495605 -169.61694336 120.59936523 C-172.97298564 125.64640782 -176.34053718 130.68359808 -179.75991821 135.68789673 C-181.36313697 138.03626256 -182.95792775 140.39029329 -184.55200195 142.74487305 C-185.37366598 143.95431092 -186.19897457 145.16127941 -187.02758789 146.3659668 C-188.24292768 148.13474345 -189.44489764 149.91195315 -190.64453125 151.69140625 C-191.35295166 152.73047119 -192.06137207 153.76953613 -192.79125977 154.84008789 C-193.25717529 155.70754639 -193.72309082 156.57500488 -194.203125 157.46875 C-193.09500426 160.79311221 -192.34775873 161.39560332 -189.703125 163.53125 C-175.84286038 175.36559359 -166.75373922 190.13625663 -159.203125 206.46875 C-158.7184375 207.49871094 -158.23375 208.52867187 -157.734375 209.58984375 C-152.9382969 220.3663973 -150.44942436 231.91485401 -148.59765625 243.52734375 C-148.38965877 245.46625741 -148.38965877 245.46625741 -147.203125 246.46875 C-144.91323719 246.62763092 -142.61869059 246.72013073 -140.32421875 246.78515625 C-139.29422508 246.8163279 -139.29422508 246.8163279 -138.24342346 246.84812927 C-136.04259565 246.91369143 -133.84164525 246.97254015 -131.640625 247.03125 C-130.15167986 247.07442892 -128.66274727 247.118043 -127.17382812 247.16210938 C-123.51705947 247.2693793 -119.86015182 247.37062772 -116.203125 247.46875 C-116.73732238 242.85663054 -117.60381973 238.93395419 -119.390625 234.65234375 C-119.83776855 233.56904785 -120.28491211 232.48575195 -120.74560547 231.36962891 C-121.22658691 230.22671387 -121.70756836 229.08379883 -122.203125 227.90625 C-122.69570801 226.71692871 -123.18829102 225.52760742 -123.69580078 224.30224609 C-124.70588528 221.86378557 -125.71907048 219.42660714 -126.73535156 216.99072266 C-128.87065494 211.86698904 -130.97637227 206.73131768 -133.078125 201.59375 C-133.6335498 200.23938843 -133.6335498 200.23938843 -134.20019531 198.85766602 C-136.55011814 193.11382598 -138.81517807 187.34617115 -141.01464844 181.54296875 C-142.12548877 178.66957075 -143.28544968 175.82529625 -144.4765625 172.984375 C-145.13301758 171.41502197 -145.13301758 171.41502197 -145.80273438 169.81396484 C-146.26486328 168.71004395 -146.72699219 167.60612305 -147.203125 166.46875 C-149.16562161 161.76214174 -151.12315136 157.05348771 -153.078125 152.34375 C-153.46964752 151.40178772 -153.46964752 151.40178772 -153.86907959 150.4407959 C-157.44002118 141.84334659 -160.94125949 133.22541077 -164.14794922 124.48388672 C-165.31988676 120.77980951 -165.31988676 120.77980951 -168.203125 118.46875 Z M-355.203125 186.46875 C-356.36908203 187.59216797 -356.36908203 187.59216797 -357.55859375 188.73828125 C-369.40552261 200.97019155 -377.61434374 216.13183893 -382.203125 232.46875 C-382.5021875 233.42910156 -382.80125 234.38945313 -383.109375 235.37890625 C-390.22278302 261.95538898 -384.34674272 290.57767541 -371.22265625 314.1953125 C-366.12584884 322.45667538 -359.89580171 331.45884632 -352.203125 337.46875 C-351.543125 337.46875 -350.883125 337.46875 -350.203125 337.46875 C-349.873125 338.45875 -349.543125 339.44875 -349.203125 340.46875 C-347.21592503 342.15114636 -345.26314703 343.66272938 -343.140625 345.15625 C-342.51792725 345.59541748 -341.89522949 346.03458496 -341.25366211 346.48706055 C-327.09373638 356.20914203 -311.39443591 362.5020384 -294.453125 365.28125 C-293.69733154 365.40540283 -292.94153809 365.52955566 -292.1628418 365.6574707 C-265.20331914 369.60966731 -237.69525752 360.73866317 -216.06005859 344.80004883 C-199.60970332 332.29749013 -188.22092306 316.42511541 -180.203125 297.46875 C-179.9040625 296.78039062 -179.605 296.09203125 -179.296875 295.3828125 C-176.58128283 288.72961167 -175.203125 281.64649286 -175.203125 274.46875 C-176.50302872 274.46066315 -177.80293243 274.45257629 -179.14222717 274.44424438 C-191.39868283 274.36672555 -203.65502826 274.27897156 -215.91133976 274.18122292 C-222.21227381 274.13129887 -228.51319142 274.08496829 -234.81420898 274.046875 C-240.89618314 274.00997333 -246.97801838 273.96359973 -253.05987358 273.91068649 C-255.37903847 273.89216856 -257.69823312 273.87705103 -260.0174427 273.86540604 C-263.26836466 273.84849934 -266.51897026 273.81945295 -269.76977539 273.78759766 C-270.726436 273.78543747 -271.68309662 273.78327728 -272.66874695 273.78105164 C-279.37287264 273.6972529 -284.89386551 273.48321041 -290.140625 268.90625 C-292.44946379 265.70167442 -293.04941664 262.93791164 -292.8125 259.015625 C-290.76885578 250.47424018 -284.32192199 243.09058608 -279.16796875 236.17578125 C-276.6192829 232.66437112 -274.34055161 229.0120717 -272.0390625 225.3359375 C-269.70223514 221.68650924 -267.2317932 218.13847823 -264.75024414 214.58642578 C-261.84401151 210.41754422 -259.01072957 206.20458497 -256.203125 201.96875 C-253.06963036 197.24132853 -249.88895783 192.5556029 -246.640625 187.90625 C-245.15960725 185.76169383 -243.68050798 183.61581177 -242.203125 181.46875 C-241.56068848 180.54835938 -241.56068848 180.54835938 -240.90527344 179.609375 C-239.59222051 177.71903985 -238.30202736 175.81479153 -237.015625 173.90625 C-236.39868774 173.03021118 -236.39868774 173.03021118 -235.76928711 172.13647461 C-234.49938999 170.30284339 -234.49938999 170.30284339 -233.203125 167.46875 C-233.73752026 165.31392572 -233.73752026 165.31392572 -235.203125 163.46875 C-237.23258569 162.31618038 -237.23258569 162.31618038 -239.68359375 161.6171875 C-240.59286621 161.32400635 -241.50213867 161.0308252 -242.43896484 160.72875977 C-243.4130127 160.43670654 -244.38706055 160.14465332 -245.390625 159.84375 C-246.88650146 159.38536743 -246.88650146 159.38536743 -248.41259766 158.91772461 C-286.31224977 147.67858064 -327.90679025 157.37045672 -355.203125 186.46875 Z M-211.203125 182.46875 C-213.14818191 184.73344896 -213.14818191 184.73344896 -215.078125 187.78125 C-215.87467544 188.97287327 -216.67157203 190.1642652 -217.46875 191.35546875 C-217.90251953 192.0107959 -218.33628906 192.66612305 -218.78320312 193.34130859 C-220.86332702 196.45791789 -222.99688498 199.53704888 -225.12451172 202.62133789 C-229.71897836 209.28917447 -234.23397118 215.98361058 -238.51953125 222.85546875 C-241.23841049 227.07572446 -244.16947559 231.14817792 -247.08984375 235.23046875 C-249.4204363 238.80174643 -251.29599701 242.65449401 -253.203125 246.46875 C-227.463125 246.79875 -201.723125 247.12875 -175.203125 247.46875 C-176.52439201 232.93481284 -180.46434005 221.91448191 -187.25097656 209.24609375 C-188.06057458 207.73484412 -188.84900447 206.21228502 -189.6328125 204.6875 C-194.31960931 196.14588214 -201.36108198 189.31079302 -208.203125 182.46875 C-209.193125 182.46875 -210.183125 182.46875 -211.203125 182.46875 Z " fill="#000000" transform="translate(719.203125,326.53125)"/>
<path d="M0 0 C0.99 0 1.98 0 3 0 C3 145.86 3 291.72 3 442 C-15.15 442 -33.3 442 -52 442 C-52.04521522 395.28919671 -52.08102058 348.57839867 -52.10213066 301.86757783 C-52.10463207 296.35263648 -52.10722071 290.83769518 -52.10986328 285.32275391 C-52.11065021 283.67586921 -52.11065021 283.67586921 -52.11145304 281.99571411 C-52.12015508 264.21951514 -52.13592395 246.44332911 -52.15430559 228.66713782 C-52.17301022 210.42643017 -52.18411792 192.1857293 -52.18817699 173.94501245 C-52.19092087 162.6900065 -52.19958656 151.43503712 -52.21583293 140.18004243 C-52.22640675 132.46153443 -52.22959972 124.74304532 -52.22700275 117.0245306 C-52.22572209 112.57173077 -52.22768213 108.11899483 -52.23841095 103.66620636 C-52.24816989 99.58608347 -52.24861777 95.50606725 -52.24179779 91.42593937 C-52.24095533 89.95335989 -52.24346993 88.48077365 -52.24976636 87.0082074 C-52.31499922 70.80390826 -49.61060988 53.79319487 -37.73828125 41.6953125 C-36.83464844 40.80585938 -35.93101563 39.91640625 -35 39 C-32.8734065 36.79166796 -30.77799776 34.55498352 -28.6875 32.3125 C-28.11862061 31.70325684 -27.54974121 31.09401367 -26.96362305 30.46630859 C-22.87850316 26.05036989 -19.10170757 21.5080559 -15.48828125 16.6953125 C-14.99714844 16.13585937 -14.50601562 15.57640625 -14 15 C-13.34 15 -12.68 15 -12 15 C-11.773125 14.46375 -11.54625 13.9275 -11.3125 13.375 C-9.54429911 10.17539839 -7.46329797 7.70962777 -5 5 C-4.34 5 -3.68 5 -3 5 C-2.690625 4.360625 -2.38125 3.72125 -2.0625 3.0625 C-1 1 -1 1 0 0 Z " fill="#000000" transform="translate(1159,276)"/>
</svg>
